<?xml version="1.0" standalone="no"?>
<!DOCTYPE svg PUBLIC "-//W3C//DTD SVG 20010904//EN"
 "http://www.w3.org/TR/2001/REC-SVG-20010904/DTD/svg10.dtd">
<svg version="1.0" xmlns="http://www.w3.org/2000/svg"
 width="260.000000pt" height="260.000000pt" viewBox="0 0 260.000000 260.000000"
 preserveAspectRatio="xMidYMid meet">
<metadata>
Created by potrace 1.14, written by Peter Selinger 2001-2017
</metadata>
<g transform="translate(0.000000,260.000000) scale(0.100000,-0.100000)"
fill="#000000" stroke="none">
<path d="M2453 2587 c-3 -6 -1 -7 5 -3 7 4 12 2 12 -5 0 -9 3 -9 14 0 10 8 16
9 21 1 4 -6 1 -9 -5 -8 -7 2 -17 -6 -23 -17 -7 -11 -19 -25 -27 -32 -13 -12
-13 -12 0 -8 9 3 24 -2 35 -10 19 -16 19 -16 -3 -5 -18 9 -23 8 -28 -4 -3 -8
-3 -19 0 -24 6 -10 -30 -9 -41 2 -5 4 -2 6 6 4 7 -1 16 4 18 12 3 10 2 11 -4
4 -4 -6 -16 -10 -25 -9 -16 3 -16 1 -3 -19 13 -20 13 -23 0 -23 -8 0 -12 4 -9
8 8 14 -14 19 -38 9 -18 -9 -19 -10 -3 -7 14 3 21 -1 21 -12 0 -12 -8 -16 -28
-15 -15 1 -25 -2 -22 -7 3 -5 10 -7 15 -4 5 4 9 2 9 -3 0 -16 -13 -22 -26 -11
-8 7 -14 6 -20 -2 -4 -7 -3 -9 4 -5 6 3 13 2 16 -3 9 -14 -5 -42 -17 -34 -6 4
-8 0 -5 -9 4 -8 2 -21 -3 -29 -7 -11 -9 -11 -9 0 0 7 -6 11 -15 8 -8 -4 -17
-2 -20 4 -4 5 -3 9 2 8 29 -5 40 17 19 38 -4 4 -7 4 -6 -2 4 -18 0 -35 -7 -34
-19 3 -23 -2 -14 -19 7 -14 6 -19 -4 -19 -8 0 -12 3 -10 7 2 4 -2 7 -9 7 -8 0
-12 -6 -9 -13 3 -8 -2 -11 -14 -10 -10 2 -13 1 -6 -1 6 -2 14 -11 17 -20 4
-10 2 -14 -8 -10 -10 4 -13 1 -9 -9 4 -10 0 -12 -11 -8 -12 5 -15 2 -10 -9 3
-9 11 -15 17 -13 7 1 9 1 5 -1 -5 -3 -8 -9 -8 -14 0 -6 5 -7 12 -3 7 5 8 3 3
-6 -6 -10 -13 -8 -28 11 -20 24 -20 24 -14 1 3 -12 1 -20 -3 -17 -5 3 -12 0
-15 -5 -4 -6 -18 -15 -31 -20 -13 -5 -24 -13 -23 -17 5 -30 -2 -35 -23 -17
-13 10 -20 15 -15 10 4 -5 -1 -18 -10 -29 -10 -11 -13 -17 -7 -14 7 4 15 -1
19 -11 6 -16 7 -16 21 2 8 11 14 15 14 9 0 -19 -25 -34 -37 -22 -6 6 -17 8
-24 3 -9 -5 -8 -10 7 -16 18 -7 18 -8 -1 -6 -25 3 -67 -20 -60 -32 3 -5 1 -11
-5 -15 -6 -4 -7 -11 -4 -17 4 -6 2 -8 -4 -4 -5 3 -12 0 -15 -6 -2 -7 -8 -10
-11 -6 -4 3 1 15 11 25 16 16 17 21 5 32 -11 11 -16 11 -25 1 -9 -10 -9 -11 0
-6 25 14 21 -14 -6 -43 -19 -20 -35 -29 -50 -26 -12 2 -19 0 -16 -6 4 -5 1
-10 -4 -10 -6 -1 -15 -2 -20 -3 -5 0 -13 -5 -18 -10 -5 -5 -3 -6 5 -2 14 9 17
-10 2 -19 -16 -10 -1 -25 18 -18 13 4 13 3 -3 -10 -17 -13 -21 -13 -30 0 -9
12 -11 11 -11 -6 0 -11 4 -17 8 -15 4 3 8 0 8 -7 0 -9 3 -9 14 0 11 9 16 9 22
0 4 -7 3 -9 -3 -6 -11 7 -45 -28 -36 -37 3 -3 -4 -4 -16 -1 -13 2 -21 -1 -21
-11 0 -17 -11 -18 -34 -1 -16 12 -16 13 3 15 44 4 50 6 45 13 -2 5 -16 4 -29
-1 -24 -9 -29 -6 -26 13 1 5 -3 6 -8 3 -5 -4 -8 -18 -5 -32 3 -15 1 -23 -5
-20 -18 11 -31 -27 -16 -44 10 -11 11 -20 4 -30 -9 -13 -10 -12 -6 2 4 12 0
16 -13 15 -14 -1 -16 -4 -8 -14 6 -7 7 -13 2 -13 -5 0 -4 -4 2 -8 9 -5 8 -11
-2 -20 -12 -11 -14 -10 -10 12 3 18 1 23 -9 20 -8 -3 -11 -13 -8 -21 5 -12 3
-14 -8 -7 -8 4 -23 10 -34 11 -17 3 -18 1 -5 -8 12 -9 10 -10 -8 -6 -19 4 -21
3 -12 -8 14 -17 32 -15 42 5 6 11 7 10 5 -5 -1 -11 -7 -20 -14 -20 -6 0 -15
-4 -19 -8 -5 -4 -16 2 -26 15 -11 13 -17 17 -16 8 2 -8 9 -21 16 -28 13 -15 8
-32 -11 -32 -8 0 -8 3 2 9 8 5 9 11 3 15 -13 8 -19 -11 -16 -53 1 -27 0 -31
-8 -18 -5 10 -13 15 -19 12 -5 -4 -9 -1 -9 4 0 6 -5 11 -11 11 -8 0 -8 -5 1
-15 7 -8 16 -13 20 -10 11 7 6 -22 -5 -32 -4 -4 -5 -3 -2 3 4 7 -4 19 -18 28
-31 21 -47 21 -17 0 12 -8 22 -20 22 -25 0 -6 -7 -4 -15 5 -16 15 -49 11 -39
-5 3 -5 -3 -9 -12 -9 -10 0 -15 -3 -11 -6 10 -10 48 7 41 18 -4 7 -2 8 5 4 8
-5 9 -12 2 -19 -5 -7 -10 -16 -11 -22 -1 -5 -4 -12 -7 -15 -4 -3 -3 1 1 8 6 9
1 11 -19 8 -30 -6 -45 -15 -27 -17 27 -3 31 -4 39 -13 4 -5 3 -6 -4 -2 -14 8
-39 -31 -34 -54 1 -8 -5 -5 -14 8 -19 25 -32 21 -82 -26 -17 -17 -34 -29 -37
-26 -3 2 -4 1 -1 -3 9 -12 36 -12 29 -1 -5 7 -2 8 6 3 8 -5 11 -4 7 2 -4 6 3
19 14 29 18 16 19 16 13 1 -3 -9 -10 -17 -16 -17 -5 0 -7 -4 -3 -9 3 -5 1 -12
-5 -16 -6 -4 -8 -10 -5 -14 2 -5 -8 -6 -22 -3 -24 4 -25 3 -12 -10 8 -9 18
-13 23 -10 5 3 6 0 2 -6 -5 -9 -13 -9 -28 -1 -15 8 -22 8 -28 -1 -4 -7 -21
-13 -38 -13 -22 -1 -28 -5 -21 -13 6 -8 6 -14 0 -18 -5 -3 -12 -1 -14 4 -3 6
-4 5 -3 -2 2 -7 -1 -23 -5 -35 -5 -13 -4 -25 2 -28 5 -4 8 -3 7 2 -4 17 14 53
24 47 7 -4 6 -9 -2 -14 -6 -4 -13 -16 -14 -26 -2 -10 -11 -18 -20 -18 -8 1
-13 -2 -10 -7 3 -5 0 -9 -7 -9 -8 0 -7 -5 2 -17 12 -14 12 -15 0 -9 -8 5 -17
3 -23 -5 -8 -11 -9 -10 -4 4 3 10 2 15 -3 12 -5 -3 -12 -1 -16 4 -3 6 -12 8
-20 5 -16 -6 -11 -24 6 -24 6 0 7 5 3 12 -4 6 -3 8 4 5 11 -8 11 -33 -1 -42
-4 -3 -5 -2 -2 1 6 9 -37 42 -50 39 -5 -1 -7 0 -2 2 4 3 4 10 0 16 -4 7 1 6
10 -2 15 -12 17 -12 11 3 -3 9 -12 16 -20 16 -8 0 -14 5 -14 11 0 5 4 8 8 5 4
-2 8 4 8 14 0 10 -4 16 -8 14 -4 -3 -8 0 -8 7 0 7 -9 5 -22 -7 l-22 -19 17 24
c12 18 14 28 5 38 -13 16 -28 17 -28 2 0 -5 5 -7 12 -3 7 5 8 3 3 -6 -6 -9 -4
-11 5 -5 9 6 11 4 6 -4 -6 -9 -12 -9 -25 3 -21 19 -35 21 -25 4 4 -7 3 -8 -5
-4 -6 4 -8 12 -5 18 4 6 -2 8 -17 4 -13 -3 -18 -3 -10 0 11 5 11 8 0 16 -14
10 -2 7 36 -8 8 -3 15 -1 15 5 0 6 -3 10 -7 10 -5 -1 -15 -1 -23 0 -13 1 -13
3 0 12 13 9 12 10 -2 5 -23 -7 -50 3 -42 16 4 6 10 5 15 -3 6 -10 8 -7 6 8 -1
17 -4 20 -19 12 -10 -6 -18 -6 -17 -2 3 21 -2 24 -18 12 -16 -13 -17 -12 -5 3
11 14 10 17 -10 24 -13 4 -27 8 -33 8 -5 1 -11 5 -12 9 -1 4 -8 14 -15 22 -36
40 -38 43 -22 49 10 4 13 2 8 -6 -4 -7 -3 -8 4 -4 7 4 10 2 6 -7 -3 -8 2 -20
10 -27 9 -7 13 -17 9 -23 -4 -6 0 -8 10 -4 9 3 31 -4 50 -17 23 -16 39 -21 48
-15 10 6 11 9 2 10 -7 1 -19 2 -25 3 -7 1 -12 10 -10 21 2 14 0 16 -6 7 -7
-10 -14 -11 -35 -1 -15 7 -24 16 -21 21 3 5 0 7 -7 6 -6 -2 -14 3 -17 11 -3 9
0 11 9 6 9 -6 9 -2 -2 11 -9 10 -14 24 -12 31 6 16 -14 26 -23 12 -4 -8 -3 -9
4 -5 7 4 12 2 12 -4 0 -7 -8 -9 -21 -5 -16 5 -19 4 -14 -5 5 -9 4 -11 -4 -6
-6 4 -9 11 -6 16 9 15 -17 23 -27 9 -8 -11 -9 -10 -4 3 4 14 0 16 -25 13 -16
-2 -29 1 -29 6 0 6 9 7 20 4 21 -7 28 9 10 20 -8 5 -7 12 2 23 11 13 11 14 -2
7 -22 -14 -39 -15 -47 -3 -3 7 -1 8 5 4 7 -4 12 -2 12 4 0 6 4 9 8 6 4 -2 8 6
8 19 0 14 -4 21 -10 17 -18 -11 -48 -13 -41 -3 3 6 -3 14 -12 20 -10 6 -13 11
-7 11 5 0 15 -5 22 -12 9 -9 12 -9 12 0 0 7 -5 12 -11 12 -5 0 -8 4 -5 9 3 4
-5 7 -18 6 -22 -3 -60 27 -49 39 3 2 -10 3 -28 1 -26 -4 -30 -2 -19 6 12 8 12
12 2 16 -10 4 -10 8 -1 19 6 8 15 11 20 8 5 -3 9 0 9 5 0 15 -12 14 -39 -6
-14 -9 -21 -11 -17 -5 12 19 -15 25 -29 6 -13 -18 -13 -18 -12 1 1 12 -3 19
-11 17 -8 -1 -11 2 -8 7 3 5 -6 12 -21 16 -21 5 -24 8 -12 16 20 12 37 11 19
-2 -13 -9 -13 -10 0 -6 8 2 21 -3 28 -12 10 -13 10 -11 1 12 -12 26 -20 31
-46 28 -15 -2 -16 8 -4 28 6 9 11 10 15 2 4 -6 11 -11 17 -11 5 0 0 9 -11 20
-21 21 -35 27 -25 11 3 -5 0 -13 -7 -17 -7 -4 -10 -4 -6 1 8 8 -33 45 -50 45
-6 0 -14 4 -17 10 -4 6 1 7 12 4 14 -5 15 -4 4 4 -20 14 -45 4 -31 -13 8 -10
7 -15 -2 -21 -7 -4 -10 -4 -6 1 4 4 3 14 -2 21 -8 8 -7 16 2 26 17 18 21 39 6
36 -6 -2 -17 7 -23 20 -10 19 -14 20 -18 8 -4 -9 -12 -16 -19 -16 -9 0 -10 3
-2 8 6 4 14 18 18 32 4 14 4 20 -1 15 -4 -6 -25 -11 -46 -12 -44 -2 -44 5 -1
13 44 8 44 17 0 10 -35 -6 -38 -4 -33 14 3 11 1 23 -4 26 -5 3 -6 10 -3 16 4
6 -1 6 -14 -1 -18 -9 -23 -8 -32 9 -6 11 -15 18 -20 15 -11 -7 -7 22 5 32 4 4
5 2 0 -6 -6 -10 -4 -12 5 -6 9 6 11 4 5 -5 -6 -9 -4 -11 5 -5 9 6 11 4 5 -5
-5 -9 -4 -11 3 -6 8 5 10 1 5 -11 -6 -17 -6 -17 10 -1 18 17 23 33 8 24 -11
-7 -53 39 -44 49 5 4 2 5 -5 1 -7 -4 -9 -12 -6 -18 4 -6 1 -9 -7 -6 -8 3 -20
-4 -27 -16 -13 -20 -13 -20 -9 -1 3 11 8 29 12 40 4 13 1 11 -8 -5 -9 -14 -19
-25 -24 -25 -4 0 -8 -495 -8 -1100 l0 -1100 48 -2 c34 -1 45 2 40 10 -5 8 -2
8 8 0 12 -10 287 -13 1257 -13 l1242 0 0 1300 0 1301 -70 -2 c-39 -1 -73 -7
-77 -12z m-95 -208 c-10 -5 -18 -18 -19 -27 0 -11 -2 -12 -6 -4 -6 15 14 42
31 42 6 0 3 -5 -6 -11z m-108 -93 c0 -3 -4 -8 -10 -11 -5 -3 -10 -1 -10 4 0 6
5 11 10 11 6 0 10 -2 10 -4z m-20 -46 c0 -5 -2 -10 -4 -10 -3 0 -8 5 -11 10
-3 6 -1 10 4 10 6 0 11 -4 11 -10z m-2085 -109 c3 -6 -4 -15 -15 -21 -20 -11
-21 -10 -10 9 12 23 16 25 25 12z m1925 -17 c0 -8 -5 -12 -10 -9 -6 4 -8 11
-5 16 9 14 15 11 15 -7z m-1800 -114 c0 -5 -5 -12 -10 -15 -6 -4 -9 -1 -8 7 2
7 -3 12 -10 10 -8 -1 -11 2 -7 7 6 11 35 3 35 -9z m1690 -27 c12 10 12 9 1 -6
-11 -13 -17 -15 -27 -6 -11 9 -13 5 -10 -22 l4 -33 -18 24 c-17 23 -17 23 -37
3 -11 -11 -28 -23 -39 -26 -18 -7 -18 -6 -2 6 10 8 14 18 10 22 -4 5 -2 5 4 2
7 -4 14 0 17 8 4 8 15 12 26 10 11 -2 22 3 25 12 5 11 10 12 19 4 10 -8 17 -7
27 2z m-1657 -48 c-3 -9 -8 -14 -10 -11 -3 3 -2 9 2 15 9 16 15 13 8 -4z
m1411 -144 c3 -5 -1 -11 -9 -14 -9 -4 -12 -1 -8 9 6 16 10 17 17 5z m-1131
-85 c3 3 3 -4 0 -17 l-6 -23 -10 25 c-8 22 -10 23 -16 5 -7 -19 -8 -19 -14 3
-3 13 -10 20 -15 17 -6 -3 -9 2 -7 11 2 10 4 20 4 22 1 3 14 -7 29 -22 16 -15
31 -25 35 -21z m73 -55 c-6 -9 -46 -22 -46 -15 0 3 10 9 23 14 29 11 29 11 23
1z m911 -56 c0 -8 -4 -12 -9 -9 -5 3 -6 10 -3 15 9 13 12 11 12 -6z m-892 -5
c3 -6 -1 -7 -9 -4 -18 7 -21 14 -7 14 6 0 13 -4 16 -10z m756 -143 c-10 -9
-11 -8 -5 6 3 10 9 15 12 12 3 -3 0 -11 -7 -18z m-56 -7 c-3 -5 -12 -10 -18
-10 -7 0 -6 4 3 10 19 12 23 12 15 0z m12 -24 c0 -8 -6 -12 -15 -9 -11 5 -11
7 0 14 7 5 13 9 14 9 0 0 1 -6 1 -14z m-107 -101 c10 -12 8 -14 -9 -10 -15 3
-21 -1 -21 -13 0 -13 -2 -14 -9 -3 -6 9 -11 10 -15 2 -10 -15 -23 -14 -23 3 0
8 5 12 11 10 7 -3 20 2 31 10 11 9 21 16 21 16 1 0 7 -7 14 -15z m-259 -82
c-12 -20 -14 -14 -5 12 4 9 9 14 11 11 3 -2 0 -13 -6 -23z m169 -37 c0 -3 -4
-8 -10 -11 -5 -3 -10 -1 -10 4 0 6 5 11 10 11 6 0 10 -2 10 -4z m-1130 -1081
c0 -1 -10 -10 -22 -21 -14 -12 -18 -13 -10 -3 6 9 10 18 7 21 -3 2 2 5 10 5 8
0 15 -1 15 -2z m46 -47 c4 -7 4 -10 -1 -6 -4 4 -15 2 -24 -5 -14 -11 -14 -10
-2 6 16 20 18 21 27 5z m-67 -28 c11 -24 11 -24 -3 -6 -9 11 -16 24 -16 30 0
12 5 7 19 -24z m24 10 c3 -11 1 -18 -4 -14 -5 3 -9 12 -9 20 0 20 7 17 13 -6z"/>
<path d="M520 1726 c0 -2 8 -10 18 -17 15 -13 16 -12 3 4 -13 16 -21 21 -21
13z"/>
<path d="M2110 2220 c0 -5 5 -10 10 -10 6 0 10 5 10 10 0 6 -4 10 -10 10 -5 0
-10 -4 -10 -10z"/>
<path d="M2132 2209 c-9 -15 -17 -18 -25 -10 -7 5 -19 6 -26 2 -10 -7 -10 -10
-1 -16 9 -6 9 -9 -1 -16 -12 -7 -12 -10 0 -21 9 -8 11 -9 7 -1 -3 6 -2 14 3
18 6 3 7 13 4 23 -6 15 -5 15 11 2 16 -13 20 -12 32 5 13 17 18 35 11 35 -1 0
-8 -9 -15 -21z"/>
<path d="M2002 2094 c-7 -8 -16 -13 -20 -10 -4 2 -13 -2 -20 -10 -8 -9 -9 -14
-2 -14 6 0 8 -5 4 -12 -4 -7 -3 -8 5 -4 6 4 8 12 5 18 -5 7 -1 9 9 5 11 -4 21
1 28 14 13 25 9 32 -9 13z"/>
<path d="M343 1948 c14 -22 21 -22 36 -4 8 10 9 16 1 21 -6 4 -9 3 -8 -2 2 -4
-1 -9 -7 -9 -5 -1 -9 1 -8 5 1 4 -4 8 -12 8 -10 0 -11 -4 -2 -19z"/>
<path d="M1755 1850 c-3 -6 1 -7 9 -4 18 7 21 14 7 14 -6 0 -13 -4 -16 -10z"/>
<path d="M448 1833 c-6 -24 47 -29 56 -6 5 13 4 14 -8 4 -16 -14 -40 -6 -31
10 4 5 2 9 -3 9 -5 0 -12 -8 -14 -17z"/>
<path d="M1790 1839 c0 -5 5 -7 10 -4 6 3 10 8 10 11 0 2 -4 4 -10 4 -5 0 -10
-5 -10 -11z"/>
<path d="M515 1770 c3 -5 8 -10 11 -10 2 0 4 5 4 10 0 6 -5 10 -11 10 -5 0 -7
-4 -4 -10z"/>
<path d="M730 1580 c0 -7 -7 -10 -15 -6 -22 8 -18 0 9 -17 22 -15 25 -15 38 1
12 15 11 16 -4 4 -10 -8 -19 -9 -22 -3 -3 5 -1 11 6 13 9 3 9 6 0 12 -7 4 -12
2 -12 -4z"/>
<path d="M1425 1560 c-3 -6 1 -7 9 -4 18 7 21 14 7 14 -6 0 -13 -4 -16 -10z"/>
<path d="M1390 1449 c0 -5 5 -7 10 -4 6 3 10 8 10 11 0 2 -4 4 -10 4 -5 0 -10
-5 -10 -11z"/>
<path d="M1293 1425 c0 -8 4 -12 9 -9 5 3 6 10 3 15 -9 13 -12 11 -12 -6z"/>
<path d="M1120 1200 c-9 -6 -10 -10 -3 -10 6 0 15 5 18 10 8 12 4 12 -15 0z"/>
</g>
</svg>
